<svg width="220" height="197" viewBox="0 0 220 197" fill="none" xmlns="http://www.w3.org/2000/svg">
<rect x="2.5" y="2.5" width="215" height="192" stroke="black" stroke-width="5"/>
<path d="M71.0938 159.029H64.6074L64.5723 156.305H70.4609C71.4336 156.305 72.2832 156.141 73.0098 155.812C73.7363 155.484 74.2988 155.016 74.6973 154.406C75.1074 153.785 75.3125 153.047 75.3125 152.191C75.3125 151.254 75.1309 150.492 74.7676 149.906C74.416 149.309 73.8711 148.875 73.1328 148.605C72.4062 148.324 71.4805 148.184 70.3555 148.184H65.3633V171H61.9707V145.406H70.3555C71.668 145.406 72.8398 145.541 73.8711 145.811C74.9023 146.068 75.7754 146.479 76.4902 147.041C77.2168 147.592 77.7676 148.295 78.1426 149.15C78.5176 150.006 78.7051 151.031 78.7051 152.227C78.7051 153.281 78.4355 154.236 77.8965 155.092C77.3574 155.936 76.6074 156.627 75.6465 157.166C74.6973 157.705 73.584 158.051 72.3066 158.203L71.0938 159.029ZM70.9355 171H63.2715L65.1875 168.24H70.9355C72.0137 168.24 72.9277 168.053 73.6777 167.678C74.4395 167.303 75.0195 166.775 75.418 166.096C75.8164 165.404 76.0156 164.59 76.0156 163.652C76.0156 162.703 75.8457 161.883 75.5059 161.191C75.166 160.5 74.6328 159.967 73.9062 159.592C73.1797 159.217 72.2422 159.029 71.0938 159.029H66.2598L66.2949 156.305H72.9043L73.625 157.289C74.8555 157.395 75.8984 157.746 76.7539 158.344C77.6094 158.93 78.2598 159.68 78.7051 160.594C79.1621 161.508 79.3906 162.516 79.3906 163.617C79.3906 165.211 79.0391 166.559 78.3359 167.66C77.6445 168.75 76.666 169.582 75.4004 170.156C74.1348 170.719 72.6465 171 70.9355 171ZM101.117 156.41V159.17H87.2656V156.41H101.117ZM87.793 145.406V171H84.4004V145.406H87.793ZM104.07 145.406V171H100.695V145.406H104.07ZM111.172 145.406H114.459L122.844 166.271L131.211 145.406H134.516L124.109 171H121.543L111.172 145.406ZM110.1 145.406H113L113.475 161.016V171H110.1V145.406ZM132.67 145.406H135.57V171H132.195V161.016L132.67 145.406ZM155.17 164.531C155.17 163.934 155.076 163.406 154.889 162.949C154.713 162.48 154.396 162.059 153.939 161.684C153.494 161.309 152.873 160.951 152.076 160.611C151.291 160.271 150.295 159.926 149.088 159.574C147.822 159.199 146.68 158.783 145.66 158.326C144.641 157.857 143.768 157.324 143.041 156.727C142.314 156.129 141.758 155.443 141.371 154.67C140.984 153.896 140.791 153.012 140.791 152.016C140.791 151.02 140.996 150.1 141.406 149.256C141.816 148.412 142.402 147.68 143.164 147.059C143.938 146.426 144.857 145.934 145.924 145.582C146.99 145.23 148.18 145.055 149.492 145.055C151.414 145.055 153.043 145.424 154.379 146.162C155.727 146.889 156.752 147.844 157.455 149.027C158.158 150.199 158.51 151.453 158.51 152.789H155.135C155.135 151.828 154.93 150.979 154.52 150.24C154.109 149.49 153.488 148.904 152.656 148.482C151.824 148.049 150.77 147.832 149.492 147.832C148.285 147.832 147.289 148.014 146.504 148.377C145.719 148.74 145.133 149.232 144.746 149.854C144.371 150.475 144.184 151.184 144.184 151.98C144.184 152.52 144.295 153.012 144.518 153.457C144.752 153.891 145.109 154.295 145.59 154.67C146.082 155.045 146.703 155.391 147.453 155.707C148.215 156.023 149.123 156.328 150.178 156.621C151.631 157.031 152.885 157.488 153.939 157.992C154.994 158.496 155.861 159.064 156.541 159.697C157.232 160.318 157.742 161.027 158.07 161.824C158.41 162.609 158.58 163.5 158.58 164.496C158.58 165.539 158.369 166.482 157.947 167.326C157.525 168.17 156.922 168.891 156.137 169.488C155.352 170.086 154.408 170.549 153.307 170.877C152.217 171.193 150.998 171.352 149.65 171.352C148.467 171.352 147.301 171.188 146.152 170.859C145.016 170.531 143.979 170.039 143.041 169.383C142.115 168.727 141.371 167.918 140.809 166.957C140.258 165.984 139.982 164.859 139.982 163.582H143.357C143.357 164.461 143.527 165.217 143.867 165.85C144.207 166.471 144.67 166.986 145.256 167.396C145.854 167.807 146.527 168.111 147.277 168.311C148.039 168.498 148.83 168.592 149.65 168.592C150.834 168.592 151.836 168.428 152.656 168.1C153.477 167.771 154.098 167.303 154.52 166.693C154.953 166.084 155.17 165.363 155.17 164.531Z" fill="black"/>
<path d="M66.6558 64.3751C74.0173 73.8438 94.7844 92.7811 109.662 92.7811C124.54 92.7811 142.983 73.8438 150.344 64.3751M59.6818 64.3751C55.8074 73.8438 41.3169 92.7811 19 92.7811M157.318 64.3751C160.805 74.208 171.266 91.6885 198 91.6885" stroke="black"/>
<rect x="19" y="109.168" width="179" height="8.74029" fill="black"/>
<rect x="58.5194" y="128.834" width="65.5522" height="9.2987" transform="rotate(-90 58.5194 128.834)" fill="black"/>
<rect x="149.182" y="128.834" width="65.5522" height="9.2987" transform="rotate(-90 149.182 128.834)" fill="black"/>
<line x1="30.8739" y1="91.6886" x2="30.8739" y2="109.169" stroke="black" stroke-width="0.5"/>
<line x1="40.1726" y1="87.3176" x2="40.1726" y2="109.168" stroke="black" stroke-width="0.5"/>
<line x1="49.4707" y1="78.5774" x2="49.4707" y2="109.168" stroke="black" stroke-width="0.5"/>
<line x1="77.3661" y1="76.3922" x2="77.3661" y2="109.168" stroke="black" stroke-width="0.5"/>
<line x1="88.9901" y1="85.1329" x2="88.9901" y2="109.169" stroke="black" stroke-width="0.5"/>
<line x1="100.614" y1="91.6886" x2="100.614" y2="109.169" stroke="black" stroke-width="0.5"/>
<line x1="109.913" y1="91.6886" x2="109.913" y2="109.169" stroke="black" stroke-width="0.5"/>
<line x1="186.626" y1="89.5028" x2="186.626" y2="109.168" stroke="black" stroke-width="0.5"/>
<line x1="177.327" y1="87.3176" x2="177.327" y2="109.168" stroke="black" stroke-width="0.5"/>
<line x1="165.706" y1="78.5774" x2="165.706" y2="109.168" stroke="black" stroke-width="0.5"/>
<line x1="119.211" y1="89.5028" x2="119.211" y2="109.168" stroke="black" stroke-width="0.5"/>
<line x1="128.51" y1="85.1329" x2="128.51" y2="109.169" stroke="black" stroke-width="0.5"/>
<line x1="140.134" y1="76.3922" x2="140.134" y2="109.168" stroke="black" stroke-width="0.5"/>
</svg>
